<?xml version="1.0" encoding="UTF-8" standalone="no"?><svg version="1.1" id="svg2" width="256" height="256" viewBox="0 0 2933.3333 2933.3333" xmlns:inkscape="http://www.inkscape.org/namespaces/inkscape" xmlns="http://www.w3.org/2000/svg" xmlns:svg="http://www.w3.org/2000/svg"><g id="g8" inkscape:groupmode="layer" inkscape:label="ink_ext_XXXXXX" transform="matrix(1.3333333,0,0,-1.3333333,0,2933.3333)"><g id="g10" transform="scale(0.1)"><path d="m 14605.8,19583.2 c -1513.5,203.3 -3064.4,132.8 -4552.2,-213.3 -1465.2,-340.8 -2879.06,-958.6 -4085.15,-1863 -1161,-870.6 -2115.19,-2004.7 -2755.4,-3308.8 -623.6,-1270.3 -956.63,-2693.1 -878,-4110.8 75.37,-1359 536.73,-2664.9 1325.16,-3773.9 778.43,-1095.1 1837.85,-1995.8 3058.68,-2561.2 1301.36,-602.8 2736.21,-793.7 4150.71,-556.8 1486,249 2885.2,948.3 4021.6,1930.7 1175.3,1016 2038,2354.8 2583.3,3802.8 553.7,1470.4 807.9,3091.4 714.9,4660.7 -48.4,816.1 -202.2,1631.3 -517.1,2388.2 -277.5,667.1 -674.2,1273 -1175.5,1793.8 -969.1,1007 -2273.6,1677.5 -3634.5,1968 -1447.8,309.1 -2958.97,170.2 -4350.01,-324 -1422,-505.2 -2717.74,-1356.7 -3764.14,-2442.4 C 3692.8,15878.3 2888.64,14538.2 2432.17,13086.8 1985.94,11668 1880.34,10133.2 2205.26,8677.2 2502.96,7343.1 3161.07,6096.2 4065.13,5074 4979.69,4039.9 6160.65,3240.1 7475.79,2812.8 8864.94,2361.5 10372.2,2337.4 11793,2651.1 c 1425.7,314.7 2777.8,974.3 3894.6,1915.7 1138.6,959.7 2027,2206 2615.8,3570.5 590.2,1367.8 898.2,2854.2 900.8,4344.3 2.7,1541.4 -327.2,3135.5 -1204.5,4426.3 -786.4,1156.9 -1956.8,1963.9 -3247.5,2468.7 -1319.1,515.8 -2750.6,728.9 -4161.3,759.9 -1567.1,34.4 -3258.96,-91.2 -4636.51,-909.3 C 4779.7,18529.6 3965.27,17391.1 3428.89,16155.4 2851.53,14825.2 2533.98,13384.6 2308.92,11957 2046.88,10294.9 1989.8,8548.1 2659.67,6969.7 3192.16,5715 4133.44,4662.9 5255.44,3901.7 6425.55,3107.8 7796.73,2639.2 9205.76,2536.3 c 1524.54,-111.3 3062.84,195.9 4457.74,809.6 1392.2,612.5 2628.2,1547.8 3609.2,2708.8 975.9,1155.1 1701.9,2507.9 2165,3945.6 237.5,737.3 402.9,1496.1 500.3,2264.5 111,875 119.6,1763.9 -24.9,2635.7 -247.5,1493.2 -1004,2915.4 -2244,3813.5 -1312.6,950.6 -2997.3,1113 -4567,1186.9 -1697.4,79.8 -3428.13,94.9 -5090.86,-304.5 -1476.01,-354.5 -2839.81,-1075 -3935.15,-2130 -1074.52,-1035 -1856.81,-2360.8 -2198.3,-3816.1 -359.36,-1531.5 -246.65,-3169.2 340.33,-4630.1 32.25,-80.2 106.91,-136.7 197.12,-111.9 76.21,21 144.38,116.4 111.92,197.1 -589.24,1466.5 -694.65,3106.2 -296.73,4636 361.13,1388.4 1138.22,2635.4 2188.38,3608 513.83,475.9 1089.74,882.2 1709.18,1208.9 677.72,357.5 1405.4,606.6 2152.81,771.5 1622.25,358 3306.7,327.6 4956.5,244 1511.6,-76.6 3129.5,-255.1 4368.3,-1209.6 1172,-903 1840.7,-2319.4 2030.7,-3764.6 206.5,-1570.4 -62.5,-3208.9 -569,-4699.6 -467.5,-1375.9 -1189.7,-2673.8 -2149.5,-3767.6 -970.6,-1106.3 -2177.1,-1987.8 -3534,-2560.7 -1361.3,-574.8 -2859.2,-837.3 -4333.46,-702.1 -1349.31,123.7 -2653.54,614.2 -3759.01,1396 -1053.38,745 -1933.84,1779.5 -2404.09,2988.7 -603.98,1553 -501.37,3263.2 -227.02,4875 231.56,1360.3 535.75,2740.6 1106.99,4003.3 534.52,1181.5 1330.49,2256.7 2482.22,2894.3 692.03,383.1 1472.16,587 2252.52,690.4 747,98.9 1507.55,118.9 2260.15,94 1365.4,-45.2 2741.9,-270.7 4012.3,-786.5 1231.3,-500 2344.1,-1313.6 3059.1,-2447.5 802.6,-1272.9 1078.4,-2808.6 1048,-4295.2 -29.2,-1428 -342.6,-2857.7 -932.9,-4159.5 C 17352.9,6809 16477.9,5621.9 15358,4708 14269,3819.3 12949.9,3213.5 11575,2931.9 10200.9,2650.3 8752.18,2706.3 7423.06,3168.2 6165.83,3605.1 5052.3,4405.2 4191.82,5415.8 c -848.94,997 -1449.48,2209.1 -1708.74,3493.6 -285.1,1412.5 -145.54,2890.5 309.95,4251.8 465.08,1390 1263.77,2666.9 2298.07,3704.1 1025.35,1028.3 2285.73,1835.4 3665.29,2296 1347.91,450 2799.31,561.6 4187.01,231.8 1301.8,-309.4 2534.1,-973.4 3439.3,-1968.2 469.3,-515.8 834.7,-1119.1 1075.2,-1773.8 274.9,-748.3 399.5,-1542.4 423.2,-2337.2 45.6,-1523.8 -223.8,-3072.8 -788.9,-4488.8 C 16539.5,7440.3 15669.4,6178.7 14516.2,5227.3 13400,4306.6 12027.9,3673.4 10591.4,3474.8 9251.88,3289.6 7886,3520.9 6678.07,4126.6 5522.11,4706.2 4519.51,5591.8 3803.61,6669 3075.96,7763.9 2671.92,9032.1 2645.73,10347.5 c -27.16,1364.2 328.48,2721.6 964.41,3924.9 655.03,1239.5 1599.86,2312.9 2745.03,3121.5 1197.3,845.3 2573.8,1411.4 4004.43,1716.2 1392.5,296.6 2835.8,342.1 4246.2,152.6 85.9,-11.5 160.2,81.9 160.2,160.3 0,96.2 -74,148.7 -160.2,160.2 v 0" style="fill:#ffb74a;fill-opacity:1;fill-rule:nonzero;stroke:none" id="path16"/></g></g></svg>