<?xml version="1.0" encoding="utf-8"?>
<svg version="1.1" id="Layer_1" xmlns="http://www.w3.org/2000/svg" xmlns:xlink="http://www.w3.org/1999/xlink" x="0px" y="0px"
	 viewBox="0 0 48 48" style="enable-background:new 0 0 48 48;" xml:space="preserve">
<style type="text/css">
	.st1{fill:#000001;}
</style>
<path class="st1" d="M31.4,35.9c0.9,1.5,1.9,2.9,4,2.9c1.8,0,2.7-0.9,2.7-2.1c0-1.5-1-2-2.9-2.8l-1.1-0.5C31,32.1,29,30.5,29,27
	c0-3.2,2.5-5.7,6.3-5.7c2.7,0,4.7,0.9,6.1,3.4l-3.4,2.1c-0.7-1.3-1.5-1.8-2.8-1.8c-1.3,0-2.1,0.8-2.1,1.8c0,1.3,0.8,1.8,2.6,2.6
	l1.1,0.5c3.7,1.6,5.7,3.2,5.7,6.7c0,3.9-3,6-7.1,6c-4,0-6.3-2-7.5-4.5L31.4,35.9z"/>
</svg>
