<?xml version="1.0" encoding="UTF-8"?>
<!DOCTYPE svg PUBLIC "-//W3C//DTD SVG 1.1//EN" "http://www.w3.org/Graphics/SVG/1.1/DTD/svg11.dtd">
<svg xmlns="http://www.w3.org/2000/svg" version="1.1" width="220px" height="220px" style="shape-rendering:geometricPrecision; text-rendering:geometricPrecision; image-rendering:optimizeQuality; fill-rule:evenodd; clip-rule:evenodd" xmlns:xlink="http://www.w3.org/1999/xlink">
<g><path style="opacity:1" fill="#ffffff" d="M 47.5,-0.5 C 88.8333,-0.5 130.167,-0.5 171.5,-0.5C 196.946,6.6125 212.946,22.9458 219.5,48.5C 219.5,89.1667 219.5,129.833 219.5,170.5C 212.933,196.067 196.933,212.4 171.5,219.5C 130.167,219.5 88.8333,219.5 47.5,219.5C 22.0666,212.4 6.06661,196.067 -0.5,170.5C -0.5,129.833 -0.5,89.1667 -0.5,48.5C 6.05388,22.9458 22.0539,6.6125 47.5,-0.5 Z"/></g>
<g><path style="opacity:1" fill="#000000" d="M 50.5,7.5 C 88.8348,7.33335 127.168,7.50001 165.5,8C 190.466,12.2999 205.632,26.7999 211,51.5C 211.667,89.1667 211.667,126.833 211,164.5C 206.983,190.85 191.817,206.35 165.5,211C 127.167,211.667 88.8333,211.667 50.5,211C 25.8415,205.011 11.6748,189.511 8,164.5C 7.33333,126.833 7.33333,89.1667 8,51.5C 13.2096,28.1246 27.3762,13.4579 50.5,7.5 Z"/></g>
<g><path style="opacity:1" fill="#ffffff" d="M 59.5,64.5 C 62.5,64.5 65.5,64.5 68.5,64.5C 68.041,87.8858 68.541,111.219 70,134.5C 79.6466,149.056 92.4799,152.556 108.5,145C 113.116,142.382 116.283,138.549 118,133.5C 119.458,110.553 119.958,87.5526 119.5,64.5C 122.5,64.5 125.5,64.5 128.5,64.5C 128.667,85.8359 128.5,107.169 128,128.5C 123.839,146.824 112.339,156.157 93.5,156.5C 76.0549,155.885 64.8883,147.218 60,130.5C 59.5,108.503 59.3334,86.5025 59.5,64.5 Z"/></g>
<g><path style="opacity:1" fill="#ffffff" d="M 151.5,64.5 C 154.5,64.5 157.5,64.5 160.5,64.5C 160.5,94.5 160.5,124.5 160.5,154.5C 157.5,154.5 154.5,154.5 151.5,154.5C 151.5,124.5 151.5,94.5 151.5,64.5 Z"/></g>
</svg>
